<?xml version="1.0" encoding="UTF-8"?>
<svg xmlns="http://www.w3.org/2000/svg" width="72" height="73" viewBox="0 0 72 73" fill="none">
  <path d="M66.9228 32.5506C67.0625 33.6112 67.179 34.7189 67.2256 35.8266H65.0828C64.5471 36.7222 63.9882 37.6178 63.4059 38.5133H67.2256C66.9228 45.8665 64.2211 52.5834 59.8424 57.8862C57.6997 56.6371 55.2774 55.553 52.6456 54.681C53.0415 53.4554 53.4142 52.1592 53.717 50.863C52.9484 51.6878 52.1798 52.5127 51.3879 53.3376C50.4097 54.3274 49.4082 55.2702 48.4067 56.2129C48.6862 56.2836 48.9657 56.3307 49.2452 56.4014C46.3338 63.6604 41.862 68.5861 36.738 69.3167V65.4987C35.853 66.0879 34.968 66.6535 34.0829 67.1956V69.3167C33.2444 69.1988 32.4526 68.9396 31.684 68.6096C30.0536 69.5052 28.4466 70.283 26.8628 70.99C29.5878 71.7206 32.4526 72.1213 35.4105 72.1213C45.2391 72.1213 54.0896 67.9497 60.3781 61.28C60.9837 60.6672 61.5659 60.0309 62.1016 59.3474C67.016 53.314 69.9739 45.5837 69.9739 37.17C69.9739 34.1533 69.5779 31.2544 68.8559 28.4734C68.2736 29.8168 67.6448 31.1837 66.9228 32.5506ZM44.7733 68.0204C47.5449 65.4044 49.9439 61.6571 51.7373 57.132C54.043 57.9098 56.1858 58.8054 58.0723 59.8423C54.4157 63.5896 49.8507 66.4414 44.7733 68.0204Z" fill="#222222"></path>
  <path d="M8.69589 59.3484C9.25486 60.0318 9.83713 60.6682 10.4427 61.2809C12.1196 63.0721 13.9829 64.6511 16.0092 66.0417C17.1737 65.8531 18.3848 65.5703 19.6658 65.1696C17.1271 63.7084 14.798 61.9408 12.7485 59.8433C14.635 58.8063 16.7545 57.9107 19.0602 57.1565C20.1083 59.7254 21.3427 62.0115 22.7169 64.0384C23.5088 63.7084 24.3006 63.3549 25.0925 62.9778C23.765 61.0924 22.5771 58.9006 21.5756 56.4024C25.3953 55.3889 29.6109 54.7997 34.0827 54.6819V57.6043C34.9678 56.968 35.8528 56.3081 36.7379 55.6246V54.6819C37.1105 54.7055 37.4832 54.729 37.8558 54.7526C38.834 53.9513 39.8355 53.1028 40.8138 52.2544C39.4862 52.1366 38.112 52.0423 36.7379 51.9952V38.5143H52.6454C52.6454 38.9856 52.5988 39.4334 52.5756 39.8812C53.6236 38.5378 54.6484 37.1709 55.6033 35.8275H55.3006C55.1841 29.9591 54.2292 24.4442 52.6454 19.6599C55.2773 18.7643 57.6995 17.7038 59.8423 16.4547C61.0767 17.9394 62.148 19.5421 63.1029 21.2154C63.4989 19.8956 63.7784 18.6701 63.9647 17.4917C63.3824 16.6196 62.7769 15.7948 62.1247 14.9935C61.5658 14.31 60.9835 13.6736 60.3779 13.0373C54.0894 6.36757 45.239 2.19604 35.4103 2.19604C25.5816 2.19604 16.7312 6.36757 10.4427 13.0373C9.83713 13.6736 9.25486 14.31 8.69589 14.9935C3.80484 21.0268 0.846924 28.7571 0.846924 37.1709C0.846924 45.5847 3.80484 53.315 8.69589 59.3484ZM58.0722 14.475C56.1856 15.5355 54.0429 16.4311 51.7371 17.1853C49.9437 12.6602 47.5448 8.93648 44.7732 6.32044C49.8505 7.89949 54.4155 10.7512 58.0722 14.475ZM36.7379 5.0242C41.8618 5.75481 46.3336 10.6569 49.245 17.9394C45.4253 18.9529 41.2097 19.5421 36.7379 19.6599V5.0242ZM36.7379 22.3231C41.5125 22.2288 46.0542 21.5453 50.1533 20.4141C51.6206 24.9391 52.529 30.1948 52.6454 35.8275H36.7379V22.3231ZM34.0827 51.9952C29.3081 52.113 24.7665 52.7729 20.6673 53.9042C19.2 49.3791 18.2917 44.1235 18.1752 38.5143H34.0827V51.9952ZM34.0827 35.8275H18.1752C18.2917 30.1948 19.2 24.9391 20.6673 20.4141C24.7665 21.5453 29.3081 22.2288 34.0827 22.3231V35.8275ZM34.0827 5.0242V19.6363C29.6109 19.5421 25.3953 18.9293 21.5756 17.9394C24.4637 10.6569 28.9588 5.75481 34.0827 5.0242ZM26.0475 6.32044C23.2526 8.93648 20.8769 12.6602 19.0602 17.1853C16.7545 16.4311 14.635 15.5355 12.7485 14.475C16.4051 10.7512 20.9468 7.89949 26.0475 6.32044ZM10.9784 16.4547C13.1211 17.7038 15.5433 18.7643 18.1752 19.6599C16.5914 24.4442 15.6365 29.9355 15.5201 35.8275H3.57193C3.87471 28.4743 6.59972 21.7339 10.9784 16.4547ZM15.5201 38.5143C15.6365 44.3827 16.5914 49.874 18.1752 54.6819C15.5433 55.5539 13.1211 56.638 10.9784 57.8871C6.59972 52.5844 3.87471 45.8675 3.59523 38.5143H15.5201Z" fill="#222222"></path>
  <path d="M23.9278 69.3393C32.2658 66.0398 41.3492 59.6764 49.5009 51.4276C57.6527 43.1788 63.9645 33.9873 67.2252 25.55C70.3228 17.5133 70.3228 10.9614 67.295 6.88416L70.0433 6.15355L71.9997 5.61149L68.4829 4.12671L65.5482 2.8776L58.8405 0.0258789L61.6587 6.78989L63.0095 10.0658L64.011 12.4462L64.3837 13.3418L65.5249 8.95814C67.5745 12.3284 67.3416 17.8668 64.7331 24.5601C61.6121 32.6675 55.5332 41.5291 47.6377 49.5186C39.7188 57.5317 30.9615 63.683 22.9728 66.8411C19.2696 68.3023 15.939 69.0093 13.1442 69.0093C10.2095 69.0093 7.85717 68.2316 6.2734 66.6525C4.31699 64.6728 3.59498 61.444 4.08408 57.4139C3.33878 56.2355 2.66334 55.0335 2.05779 53.7844C0.497311 60.2185 1.2659 65.3799 4.41015 68.538C6.50631 70.6591 9.46423 71.7196 13.1209 71.7196C16.2651 71.7196 19.9218 70.9419 23.9278 69.3393Z" fill="#222222"></path>
</svg>
