<?xml version="1.0" encoding="UTF-8"?>
<svg xmlns="http://www.w3.org/2000/svg" width="72" height="73" viewBox="0 0 72 73" fill="none">
  <g clip-path="url(#clip0_544_35196)">
    <path fill-rule="evenodd" clip-rule="evenodd" d="M56.7631 34.9487C65.1697 34.9487 72 41.8729 72 50.392C72 58.9112 65.1697 65.8166 56.7631 65.8166C48.3565 65.8166 41.545 58.9112 41.545 50.392C41.545 41.8729 48.3565 34.9487 56.7631 34.9487ZM37.0415 11.8869V22.3389C39.9124 22.4139 42.6708 22.7142 45.2228 23.202C44.7162 21.4569 44.1157 19.8432 43.4402 18.417C41.7139 14.8142 39.4809 12.4311 37.0415 11.8869ZM35.9906 9.61642C43.0274 9.61642 49.3886 12.5062 54.0047 17.1786C58.1705 21.4194 60.9101 27.1051 61.398 33.4475C60.516 33.2036 59.6153 33.016 58.6959 32.9221C57.7013 31.0269 55.6372 29.3006 52.8038 27.8932C51.3776 27.1989 49.8014 26.5984 48.0563 26.0918C48.563 28.6813 48.8444 31.4585 48.9195 34.367H49.6138C48.3565 34.9487 47.1931 35.6618 46.1235 36.525H37.0415V46.3952C38.0172 46.3764 38.9742 46.3201 39.9124 46.2451C39.7436 46.9581 39.6122 47.6899 39.5372 48.4218C38.7115 48.478 37.8859 48.5156 37.0415 48.5343V59.005C38.2987 58.7236 39.4996 57.9542 40.6067 56.7908C41.0946 58.0668 41.7514 59.2865 42.5207 60.4124C40.4379 60.9753 38.2424 61.2756 35.9906 61.2756C28.9539 61.2756 22.5927 58.367 17.9765 53.6946C13.792 49.4726 11.0524 43.7494 10.5833 37.4069C11.4464 37.6508 12.3471 37.8197 13.2666 37.9323C14.2424 39.8463 16.3253 41.5914 19.1775 42.98C20.5848 43.6931 22.1798 44.2935 23.9249 44.8002C23.4183 42.2106 23.1181 39.4335 23.0618 36.525H22.3112C23.5872 35.9432 24.7694 35.2114 25.8389 34.367H34.9398V24.4968C33.964 24.5156 33.007 24.5719 32.0876 24.6469C32.2565 23.9339 32.3878 23.202 32.4629 22.4515C33.2698 22.3952 34.0954 22.3576 34.9398 22.3389V11.8869C33.6826 12.1684 32.5004 12.919 31.3933 14.0824C30.9054 12.7876 30.2674 11.5867 29.4981 10.4608C31.5622 9.91665 33.7389 9.61642 35.9906 9.61642ZM52.5035 18.6985C49.6513 15.8088 46.086 13.6696 42.0704 12.5812C43.2901 13.8572 44.3972 15.5085 45.3354 17.4788C46.2174 19.3178 46.968 21.4194 47.5497 23.7274C49.8202 24.3279 51.9031 25.0785 53.7232 25.9792C55.656 26.9174 57.2885 28.0433 58.5458 29.2818C57.4762 25.2099 55.3558 21.5883 52.5035 18.6985ZM13.4355 41.6102C14.5051 45.6633 16.6255 49.3037 19.4777 52.1935C22.3112 55.0644 25.8952 57.2224 29.9109 58.3107C28.6912 57.0347 27.5841 55.3647 26.6458 53.4132C25.7639 51.5742 25.0133 49.4726 24.4316 47.1458C22.1611 46.564 20.0782 45.8135 18.258 44.9128C16.3253 43.9745 14.6927 42.8486 13.4355 41.6102ZM34.9398 59.005V48.5343C32.0688 48.478 29.3104 48.1778 26.7584 47.6712C27.2651 49.435 27.8655 51.0488 28.5411 52.4749C30.2674 56.059 32.5004 58.4608 34.9398 59.005ZM25.1822 36.525C25.2572 39.6586 25.595 42.661 26.1955 45.3819C28.8788 45.9636 31.8249 46.3201 34.9398 46.3952V36.525H25.1822ZM46.7991 34.367C46.724 31.2146 46.3675 28.231 45.7858 25.5101C43.1024 24.9284 40.1564 24.5531 37.0415 24.4968V34.367H46.7991ZM15.2369 5.03784C23.6435 5.03784 30.4551 11.9432 30.4551 20.4624C30.4551 28.9816 23.6435 35.9057 15.2369 35.9057C6.83034 35.9057 0 28.9816 0 20.4624C0 11.9432 6.83034 5.03784 15.2369 5.03784ZM17.9578 20.4061V20.575C22.1986 21.4194 25.5762 24.159 25.5762 27.8744V29.9761H5.61063V27.8744C5.61063 24.159 9.00704 21.4194 13.2291 20.575V20.4061C10.7709 19.2427 9.4011 16.5031 9.4011 13.7822C9.4011 10.2169 11.8405 6.63284 15.5934 6.63284C19.3464 6.63284 21.8045 10.2169 21.8045 13.7822C21.8045 16.5031 20.416 19.2427 17.9578 20.4061ZM59.484 50.3357V50.5046C63.7248 51.349 67.1212 54.0699 67.1212 57.8041V59.887H47.1368V57.8041C47.1368 54.0699 50.5332 51.349 54.7741 50.5046V50.3357C52.3159 49.1723 50.9273 46.4139 50.9273 43.7118C50.9273 40.1465 53.3855 36.5437 57.1384 36.5437C60.8726 36.5437 63.3307 40.1465 63.3307 43.7118C63.3307 46.4139 61.9609 49.1723 59.484 50.3357Z" fill="#222222"></path>
  </g>
  <defs>
    <clipPath id="clip0_544_35196">
      <rect width="72" height="72" fill="white" transform="translate(0 0.0258789)"></rect>
    </clipPath>
  </defs>
</svg>
