<?xml version="1.0" encoding="UTF-8"?>
<svg xmlns="http://www.w3.org/2000/svg" width="72" height="73" viewBox="0 0 72 73" fill="none">
  <g clip-path="url(#clip0_544_35180)">
    <path d="M24.9975 16.3439C24.7987 16.9475 24.9975 17.6115 25.5145 18.014L30.1674 21.6156L28.5965 27.169C28.4176 27.7927 28.6562 28.4366 29.1931 28.8189C29.7498 29.2012 30.4458 29.2213 31.0224 28.8591L35.9935 25.7202L40.9844 28.8591C41.2628 29.0402 41.561 29.1207 41.8593 29.1207C42.1973 29.1207 42.5155 29.0201 42.7938 28.8189C43.3506 28.4366 43.5693 27.7927 43.4103 27.169L41.8394 21.6156L46.4923 18.014C47.0093 17.6115 47.2081 16.9475 47.0093 16.3439C46.7906 15.7202 46.2338 15.2976 45.5577 15.2775L39.6124 14.9958L37.4848 9.62354C37.266 8.99979 36.6695 8.6175 35.9935 8.6175C35.3373 8.6175 34.7408 8.99979 34.5021 9.62354L32.3944 14.9958L26.4491 15.2775C25.773 15.2976 25.1964 15.7202 24.9975 16.3439ZM32.9313 17.1488C33.5676 17.1085 34.1243 16.7262 34.3431 16.1427L35.9935 11.9374L37.6637 16.1427C37.8825 16.7262 38.4392 17.1085 39.0755 17.1488L43.7284 17.35L40.0896 20.187C39.5925 20.5693 39.3937 21.193 39.5527 21.7967L40.7855 26.1428L36.8684 23.6679C36.6099 23.507 36.3116 23.4063 35.9935 23.4063C35.6952 23.4063 35.3969 23.507 35.1186 23.6679L31.2213 26.1428L32.4541 21.7967C32.6131 21.193 32.3944 20.5693 31.8973 20.187L28.2585 17.35L32.9313 17.1488ZM34.8799 5.09634V1.11241C34.8799 0.508783 35.377 0.0258789 35.9935 0.0258789C36.6297 0.0258789 37.1269 0.508783 37.1269 1.11241V5.09634C37.1269 5.67985 36.6297 6.18287 35.9935 6.18287C35.377 6.18287 34.8799 5.67985 34.8799 5.09634ZM41.7201 11.5149C41.3025 11.0722 41.3423 10.3881 41.7996 9.98572L46.4128 5.98166C46.8701 5.57924 47.5859 5.61949 48.0035 6.06214C48.4211 6.52493 48.3813 7.20903 47.924 7.61145L43.3108 11.5954C43.0921 11.7966 42.8336 11.8771 42.5552 11.8771C42.257 11.8771 41.9388 11.7564 41.7201 11.5149ZM24.0033 6.06214C24.4209 5.61949 25.1367 5.57924 25.594 5.98166L30.1873 9.98572C30.6446 10.3881 30.6844 11.0722 30.2668 11.5149C30.0481 11.7564 29.7498 11.8771 29.4317 11.8771C29.1732 11.8771 28.8948 11.7966 28.696 11.5954L24.0828 7.61145C23.6255 7.20903 23.5857 6.52493 24.0033 6.06214ZM50.4294 18.014L55.0823 21.6156L53.5114 27.169C53.3325 27.7927 53.5711 28.4366 54.1079 28.8189C54.6647 29.2012 55.3606 29.2213 55.9373 28.8591L60.9083 25.7202L65.8992 28.8591C66.1776 29.0402 66.4759 29.1207 66.7742 29.1207C67.1122 29.1207 67.4303 29.0201 67.7087 28.8189C68.2655 28.4366 68.5041 27.7927 68.3251 27.169L66.7543 21.6156L71.4072 18.014C71.9241 17.6115 72.123 16.9475 71.9242 16.3439C71.7054 15.7202 71.1487 15.2976 70.4726 15.2775L64.5272 14.9958L62.4195 9.62354C62.1809 8.99979 61.5844 8.6175 60.9083 8.6175C60.2521 8.6175 59.6556 8.99979 59.417 9.62354L57.3093 14.9958L51.3639 15.2775C50.6879 15.2976 50.1112 15.7202 49.9124 16.3439C49.7135 16.9475 49.9124 17.6115 50.4294 18.014ZM57.8462 17.1488C58.4825 17.1085 59.0392 16.7262 59.2579 16.1427L60.9083 11.9374L62.5786 16.1427C62.7973 16.7262 63.3541 17.1085 63.9904 17.1488L68.6433 17.35L65.0045 20.187C64.5272 20.5693 64.3085 21.193 64.4676 21.7967L65.7004 26.1428L61.7832 23.6679C61.5247 23.507 61.2265 23.4063 60.9083 23.4063C60.6101 23.4063 60.3118 23.507 60.0334 23.6679L56.1361 26.1428L57.3689 21.7967C57.528 21.193 57.3093 20.5693 56.8122 20.187L53.1734 17.35L57.8462 17.1488ZM0.599628 18.014L5.25253 21.6156L3.68168 27.169C3.50272 27.7927 3.74133 28.4366 4.2782 28.8189C4.83496 29.2012 5.5309 29.2213 6.10755 28.8591L11.0786 25.7202L16.0695 28.8591C16.3479 29.0402 16.6462 29.1207 16.9444 29.1207C17.2825 29.1207 17.6006 29.0201 17.879 28.8189C18.4357 28.4366 18.6545 27.7927 18.4954 27.169L16.9245 21.6156L21.5774 18.014C22.0944 17.6115 22.2933 16.9475 22.0944 16.3238C21.8757 15.7202 21.3189 15.2976 20.6429 15.2775L14.6975 14.9958L12.5699 9.62354C12.3313 8.99979 11.7547 8.6175 11.0786 8.6175C10.4224 8.6175 9.82588 8.99979 9.58728 9.62354L7.47956 14.9958L1.5143 15.2775C0.858128 15.2976 0.281484 15.7202 0.0826445 16.3238C-0.116195 16.9475 0.0826421 17.6115 0.599628 18.014ZM8.01643 17.1488C8.65272 17.1085 9.20948 16.7262 9.4282 16.1427L11.0786 11.9374L12.7489 16.1427C12.9676 16.7262 13.5243 17.1085 14.1606 17.1488L18.8135 17.35L15.1747 20.187C14.6776 20.5693 14.4788 21.193 14.6379 21.7967L15.8707 26.1428L11.9535 23.6679C11.695 23.507 11.3967 23.4063 11.0786 23.4063C10.7803 23.4063 10.4821 23.507 10.2037 23.6679L6.30639 26.1428L7.51933 21.7967C7.69829 21.193 7.47955 20.5693 6.98245 20.187L3.34365 17.35L8.01643 17.1488ZM71.8247 57.6923C71.0294 55.2175 69.3989 53.0042 67.2514 51.4549C66.2174 50.7104 65.1039 50.1269 63.9108 49.7245C65.5612 48.477 66.6151 46.5454 66.6151 44.3723C66.6151 40.6298 63.4734 37.5916 59.596 37.5916C55.7186 37.5916 52.557 40.6298 52.557 44.3723C52.557 46.5454 53.6108 48.477 55.2612 49.7043C53.0541 50.4689 51.1054 51.7969 49.6141 53.5877C48.9182 52.642 48.1228 51.7768 47.228 50.9921C45.3987 49.4025 43.2711 48.2355 40.9645 47.5514C43.4103 45.982 45.0209 43.3059 45.0209 40.2878C45.0209 35.4789 40.9645 31.5754 35.9935 31.5754C31.0224 31.5754 26.9859 35.4789 26.9859 40.2878C26.9859 43.3059 28.5965 45.982 31.0224 47.5514C28.7357 48.2355 26.6081 49.4025 24.7788 50.9921C23.884 51.7768 23.0687 52.642 22.3728 53.5877C20.8815 51.7969 18.9527 50.4689 16.7456 49.7043C18.396 48.477 19.4498 46.5454 19.4498 44.3723C19.4498 40.6298 16.2882 37.5916 12.4108 37.5916C8.53342 37.5916 5.39172 40.6298 5.39172 44.3723C5.39172 46.5454 6.44558 48.477 8.07608 49.7245C6.90291 50.1269 5.76952 50.7104 4.73554 51.4549C2.58805 53.0042 0.977432 55.2175 0.182065 57.6923C-0.195735 58.8191 0.0229884 59.9861 0.758701 60.9519C1.47454 61.8976 2.56816 62.4409 3.80098 62.4409H19.3504V64.3926C19.3504 67.2095 21.7365 69.5033 24.6595 69.5033H47.3473C50.2703 69.5033 52.6365 67.2095 52.6365 64.3926V62.4409H68.2058C69.4386 62.4409 70.5124 61.8976 71.2481 60.9519C71.9838 59.9861 72.1826 58.8191 71.8247 57.6923ZM59.596 39.7646C62.2207 39.7646 64.3682 41.8371 64.3682 44.3723C64.3682 46.9277 62.2207 49.0001 59.596 49.0001C56.9514 49.0001 54.8039 46.9277 54.8039 44.3723C54.8039 41.8371 56.9514 39.7646 59.596 39.7646ZM29.2328 40.2878C29.2328 36.6861 32.2751 33.7485 35.9935 33.7485C39.7317 33.7485 42.774 36.6861 42.774 40.2878C42.774 43.8894 39.7317 46.8069 36.0133 46.8271C35.9935 46.8271 35.9935 46.8271 35.9935 46.8271C32.2751 46.8069 29.2328 43.8894 29.2328 40.2878ZM12.4108 39.7646C15.0554 39.7646 17.183 41.8371 17.183 44.3723C17.183 46.9277 15.0554 49.0001 12.4108 49.0001C9.78612 49.0001 7.63863 46.9277 7.63863 44.3723C7.63863 41.8371 9.78612 39.7646 12.4108 39.7646ZM19.5095 60.2678H3.80098C3.28399 60.2678 2.86643 60.0666 2.56817 59.6642C2.25002 59.2618 2.17048 58.799 2.32956 58.3362C3.70157 54.0505 7.75793 51.153 12.4108 51.153C15.9303 51.153 19.1516 52.803 21.1201 55.5796C20.3446 57.0485 19.7879 58.6179 19.5095 60.2678ZM50.3896 64.3926C50.3896 66.0224 49.0375 67.3302 47.3473 67.3302H24.6595C22.9693 67.3302 21.5973 66.0224 21.5973 64.3926V61.4147C22.4126 54.3321 28.5965 49.0001 35.9935 48.98C35.9935 48.98 35.9935 48.98 36.0133 48.98C43.4103 49.0001 49.5743 54.3321 50.3896 61.4147V64.3926ZM69.4386 59.6642C69.1404 60.0666 68.7228 60.2678 68.2058 60.2678H52.4973C52.2189 58.6179 51.6622 57.0485 50.8867 55.5796C52.8552 52.803 56.0765 51.153 59.596 51.153C64.2489 51.153 68.3052 54.0505 69.6772 58.3362C69.8164 58.799 69.7568 59.2618 69.4386 59.6642Z" fill="#222222"></path>
  </g>
  <defs>
    <clipPath id="clip0_544_35180">
      <rect width="72" height="72" fill="white" transform="translate(0 0.0258789)"></rect>
    </clipPath>
  </defs>
</svg>
