<?xml version="1.0" encoding="UTF-8"?>
<svg xmlns="http://www.w3.org/2000/svg" width="72" height="76" viewBox="0 0 72 76" fill="none">
  <path d="M20.2442 56.3327C26.9696 56.3327 32.4054 51.1151 32.4054 44.6675C32.4054 38.2199 26.9696 33.0023 20.2442 33.0023C13.5189 33.0023 8.08307 38.2199 8.08307 44.6675C8.08307 51.1151 13.5189 56.3327 20.2442 56.3327ZM27.2672 12.1914C26.791 12.1914 26.4141 11.7351 26.4141 11.1995C26.4141 10.644 26.791 10.1877 27.2672 10.1877H55.0613C55.5374 10.1877 55.9144 10.644 55.9144 11.1995C55.9144 11.7351 55.5374 12.1914 55.0613 12.1914H27.2672ZM27.2672 19.3333C26.791 19.3333 26.4141 18.8969 26.4141 18.3414C26.4141 17.7859 26.791 17.3296 27.2672 17.3296H55.0613C55.5374 17.3296 55.9144 17.7859 55.9144 18.3414C55.9144 18.8969 55.5374 19.3333 55.0613 19.3333H27.2672ZM27.2672 26.4753C26.791 26.4753 26.4141 26.0389 26.4141 25.4834C26.4141 24.9279 26.791 24.4716 27.2672 24.4716H55.0613C55.5374 24.4716 55.9144 24.9279 55.9144 25.4834C55.9144 26.0389 55.5374 26.4753 55.0613 26.4753H27.2672ZM18.4786 31.0977C19.0539 31.0184 19.6491 30.9985 20.2442 30.9985C22.486 30.9985 24.5691 31.4747 26.4538 32.3476C26.553 31.931 26.8704 31.6334 27.2672 31.6334H55.0613C55.5374 31.6334 55.9144 32.0698 55.9144 32.6253C55.9144 33.1808 55.5374 33.6173 55.0613 33.6173H28.6757C30.5604 34.9465 32.088 36.7319 33.1196 38.7753H55.0613C55.5374 38.7753 55.9144 39.2118 55.9144 39.7673C55.9144 40.3228 55.5374 40.7791 55.0613 40.7791H33.933C34.2901 42.0091 34.5083 43.3184 34.5083 44.6675C34.5083 45.0841 34.4885 45.5007 34.4488 45.9173H55.0613C55.5374 45.9173 55.9144 46.3736 55.9144 46.9291C55.9144 47.4647 55.5374 47.921 55.0613 47.921H34.0917C33.6156 49.8255 32.7228 51.5515 31.4928 53.0593H55.0613C55.5176 53.0593 55.9144 53.5155 55.9144 54.071C55.9144 54.6067 55.5176 55.063 55.0613 55.063H29.5089C29.4891 55.0828 29.4693 55.0828 29.4693 55.1027V60.2012H55.0613C55.5374 60.2012 55.9144 60.6575 55.9144 61.213C55.9144 61.7685 55.5374 62.2049 55.0613 62.2049H29.4693V69.0493H61.0328C62.6992 69.0493 64.0482 67.8193 64.0482 66.3116V7.56896C64.0482 6.06121 62.6992 4.85105 61.0328 4.85105H21.4742C19.8276 4.85105 18.4786 6.06121 18.4786 7.56896V31.0977ZM16.4749 31.4747V7.56896C16.4749 5.06927 18.7167 3.02588 21.4742 3.02588H61.0328C63.8102 3.02588 66.052 5.06927 66.052 7.56896V66.3116C66.052 68.8311 63.8102 70.8546 61.0328 70.8546H29.4693V73.0171C29.4693 74.128 28.5368 75.0208 27.3862 75.0208C26.9497 75.0208 26.5133 74.8819 26.1562 74.624L21.3552 71.1919C20.6212 70.6562 19.6094 70.6562 18.8754 71.1919L14.0744 74.624C13.1618 75.2985 11.8524 75.1001 11.1779 74.2074C10.92 73.8701 10.7811 73.4337 10.7811 73.0171V54.8844C7.84501 52.3649 6 48.7146 6 44.6675C6 38.3786 10.424 33.0618 16.4749 31.4747Z" fill="#222222"></path>
</svg>
